<svg data-name="Layer 1" xmlns="http://www.w3.org/2000/svg" viewBox="0 0 1080 1080"><path d="M662.06 816.87h52.41c0-5.07.57-9.92-.27-14.51-.37-2-3.42-4.08-5.7-5-18-7-29.46-23.78-28.56-42.26a42.57 42.57 0 0 1 82.56-12.36c7.44 21.19-2.3 45.2-23.13 53-8.17 3-9.7 7.12-8.81 14.27.26 2.11.32 4.25.5 6.77h85.59c0-5 .18-9.94-.12-14.89a5.33 5.33 0 0 0-2.56-3.67c-24.78-12.51-33.77-28-30.61-54.54a139.54 139.54 0 0 1 19.94-57.12c14.52-23.59 29.64-23.5 44 .27 11.25 18.68 18.4 38.87 20 60.78 1.83 24.35-8.18 40.73-30.47 50.48a6.46 6.46 0 0 0-3.18 3.92c-.54 2.3-.16 4.82-.17 7.24v7.89H870v16.28H210v-15.93h47.29v-28.32c-.61-.21-1.3-.71-1.88-.6-22.13 4.33-37.21-11.34-41.38-25.89-5.63-19.71 2-39.51 19.66-48.18 4.78-2.35 6-5.26 6.49-9.89 1.3-12.25 10.59-22.21 21.88-24s21.81 4.25 27.74 15.61c1 2 3.29 4.1 5.32 4.52 19.37 4 29.5 20.53 22.95 39.18-1.85 5.26-1.55 9.48.07 14.55 5.12 16.09-.86 32.4-14.11 40.71-9.26 5.81-18.83 5-29.07 1.41v20.2H394.7v-554c0-2.67-.89-5.9.28-7.87 1.86-3.12 4.93-5.64 7.89-7.89 1.08-.83 3.29-.19 5-.19h241.44c11 0 12.77 1.72 12.77 12.49Q662 433.14 662 607q0 100.72.07 201.45c-.01 2.55-.01 5.17-.01 8.42zm-16 .07v-258q0-143.61.1-287.23c0-6.29-1.24-8.85-8.32-8.83-72.72.27-145.43.16-218.15.2-2.54 0-5.09.33-7.74.51v553.16h62.76v-56.31c0-9.14 2.44-11.54 11.65-11.56q42.18-.07 84.35 0c9.32 0 11.63 2.15 11.71 11.53.14 16.24 0 32.48.07 48.72 0 2.55.3 5.1.48 7.83zm-387.73-58.88h15.83c.16 3.46.16 6.81.49 10.13.81 8.09 7.54 15 14.33 15s13.46-6.89 14.07-15.07c.21-2.85.35-6-.68-8.58-3.48-8.57-3.11-16.66.15-25.34s-1.89-15.75-11.14-16.56c-7.81-.68-13-4.71-15.73-12-1.91-5.06-4.58-9.55-10.94-8.32s-8.54 6.15-8.55 11.88c0 10-4.77 15.76-14 19.58-15.72 6.5-18.34 29.2-5.14 40 5.19 4.22 11.05 4.73 17.1 2.68 5.85-2 3-7.35 3.87-11.28.09-.53.15-1.01.34-2.12zm307.29 58.86v-50.86h-73.87v50.86zM827.35 685.6l-3.15.27c-1.17 1.52-2.4 3-3.49 4.57a119.16 119.16 0 0 0-21.48 62.15c-.76 13.12 6.61 24.24 17.36 28.08v-34.25h17.16v34.33c12.26-4.45 19.77-18.88 17.1-33.83a181.67 181.67 0 0 0-8.61-32.81c-3.82-9.94-9.84-19.04-14.89-28.51zM730.61 781c13.34-4.72 20-17 17.26-29.42a26.4 26.4 0 0 0-27.2-20.47c-12.22.77-23 11.36-23.87 23.36-.9 13.07 6 23.57 17.72 25.91V758h16.09v23z"/><path d="M367.84 361.08v16.11h-93V653.5h-17V646 374.06c0-10.95 2.29-13.34 13-13.35q45.07-.06 90.16 0c2.13-.01 4.26.22 6.84.37zM783.13 377.48H689v-16.42c2.37-.12 4.91-.35 7.45-.35h89.43c11 0 13.06 2 13.06 13.08V665h-15.81z"/><path d="M319.66 608.3h-16.32c0-13.91-.11-27.81.2-41.71 0-1.18 2.74-3.07 4.38-3.28 3.75-.5 7.61-.16 11.74-.16zM753.1 688.23H737v-31c0-15.29 0-15.29 16.1-13.54zM319.64 688.26h-16.29c0-14-.11-27.69.18-41.39 0-1.23 2.57-3.23 4.13-3.43 3.79-.51 7.69-.17 12-.17zM691.86 448.15v-43.94h15.89v43.94zM692.13 564.07c16-2.47 16.11-2.37 16.11 12.5v31.58h-16.11zM737.65 484.05h15.46v44.09h-15.46zM319.68 448.48h-15.8v-44h15.8zM319.57 528.5H303.9v-44.32h15.67zM707.66 528.31H692v-44.17h15.68zM737.42 404.08h15.69v44h-15.69zM708.25 688.16h-16.38v-43.5c.65-.42 1-.85 1.43-.9 14.94-1.75 15-1.74 15 13zM753.21 563.21V608a12.54 12.54 0 0 1-2.32.66c-14 .72-14 .71-13.93-13.5 0-8 .43-16-.11-23.91-.46-6.61 2.14-8.74 8.31-8a71.62 71.62 0 0 0 8.05-.04zM349.77 723.2h15v44.55h-15zM365 608.38h-15.12v-44.63H365zM349.82 643.69h15.08v44.49h-15.08zM349.93 484h14.88v44.33h-14.88zM349.75 404.08h15.09v44.05h-15.09zM482.14 308.71H438V292.6h44.12zM550.94 292.58v15.82h-44.59v-15.82zM482.33 429v16.4h-43.95a16.1 16.1 0 0 1-.89-3.22c-1-13.17-.94-13.18 12.31-13.18zM482.23 400.25c-14 0-27.28.14-40.55-.2-1.46 0-3.82-2.6-4.1-4.28-.62-3.71-.19-7.6-.19-11.74h44.84zM482.7 673.92H438v-16.51c14.06 0 27.55-.11 41 .19 1.26 0 3.32 2.49 3.53 4 .47 3.79.17 7.67.17 12.32zM505.92 384h45v16.24c-13.79 0-27.52.11-41.24-.19-1.28 0-3.34-2.56-3.56-4.13-.56-3.7-.2-7.56-.2-11.92zM551.12 658v15.6h-44.51V658zM550.92 520.92v15.78h-44.43v-15.78zM575.05 536.73V521h44.26v15.74zM575.11 308.51v-15.92h44.07v15.92zM437.81 566.13c13.85 0 26.64.07 39.43 0 3.95 0 5.8 1.41 5.52 5.55-.23 3.32-.05 6.67-.05 10.5h-44.9zM619.32 384.22v16c-13.78 0-27.26.11-40.73-.17-1.36 0-3.6-2.32-3.81-3.79-.55-3.77-.19-7.66-.19-12.06zM550.93 445.45H506c0-4.42-.28-8.48.15-12.46.16-1.39 2.06-3.68 3.2-3.7 13.73-.26 27.46-.17 41.57-.17zM619.33 429.67v15.73h-44.16v-15.73zM482.35 520.46v16.78c-13.8 0-27.29 0-40.77-.08a4.7 4.7 0 0 1-3.49-1.82c-4.06-7 .54-14.86 8.55-14.87 11.62-.02 23.24-.01 35.71-.01zM619.51 658v15.58h-44.35V658zM551 566v16.16h-43.7c-.36-.64-.93-1.22-1-1.85-1.68-14-1.42-14.31 12.5-14.31zM438.6 628.52a17 17 0 0 1-1-2.42c0-13.73 0-13.85 13.35-14.07 10.33-.18 20.67 0 30.19 0 .95 1.06 1.23 1.22 1.25 1.42 1.88 14.84 1.73 15.05-12.6 15.1-10.48 0-20.99-.03-31.19-.03zM575 628v-15.56h44.11V628zM437.84 490.73v-15.05h44.48v15.05zM551.07 612v16.55h-31.64c-1.45 0-2.9-.25-4.35-.28-7.8-.15-12.11-7.68-8.08-14.42a4.71 4.71 0 0 1 3.5-1.76c13.28-.09 26.56-.09 40.57-.09zM437.93 353.8v-15.13h44.32v15.13zM482.37 703.39v15.42h-43.89c-.19-.28-.63-.66-.68-1.08-1.66-14.36-1.65-14.36 12.68-14.35zM575.18 581.9c-1.73-15.76-1.73-15.76 13.27-15.71h21c10 0 10.27.17 10.22 9.91 0 1.68-.16 3.36-.29 5.77zM551 475.79v14.89h-44.61v-14.89zM551.09 338.77v15h-44.45v-15zM619.27 338.78V354h-44v-15.22zM619 490.91h-43.81v-15.13H619zM619.28 703.93v15h-44.2v-15zM506.71 719.05a27.63 27.63 0 0 1-.71-3.29c-.89-12.36-.88-12.37 11.61-12.38h33.12v15.67z"/></svg>