<svg xmlns="http://www.w3.org/2000/svg" viewBox="-1 -1 42 42"><path d="M14 14h12a.25.25 0 0 0 0-.5h-.25v-1.75a1.25 1.25 0 0 0-2.5 0v1.75h-.5v-1.75a1.25 1.25 0 0 0-2.5 0v1.75h-.5v-1.75a1.25 1.25 0 0 0-2.5 0v1.75h-.5v-1.75a1.25 1.25 0 0 0-2.5 0v1.75H14a.25.25 0 0 0 0 .5zm9.75-2.25a.75.75 0 0 1 1.5 0v1.75h-1.5zm-3 0a.75.75 0 0 1 1.5 0v1.75h-1.5zm-3 0a.75.75 0 0 1 1.5 0v1.75h-1.5zm-3 0a.75.75 0 0 1 1.5 0v1.75h-1.5zm1.5 5.75a.25.25 0 0 0-.25.25v1a.25.25 0 0 0 .5 0v-1a.25.25 0 0 0-.25-.25zm1.5 0a.25.25 0 0 0-.25.25v1a.25.25 0 0 0 .5 0v-1a.25.25 0 0 0-.25-.25zm1.5 0a.25.25 0 0 0-.25.25v1a.25.25 0 0 0 .5 0v-1a.25.25 0 0 0-.25-.25zm1.5 0a.25.25 0 0 0-.25.25v1a.25.25 0 0 0 .5 0v-1a.25.25 0 0 0-.25-.25zm1.5 0a.25.25 0 0 0-.25.25v1a.25.25 0 0 0 .5 0v-1a.25.25 0 0 0-.25-.25zm1.5 0a.25.25 0 0 0-.25.25v1a.25.25 0 0 0 .5 0v-1a.25.25 0 0 0-.25-.25z" stroke-width=".2" stroke="#000"/><circle cx="16.5" cy="21.75" r=".5" stroke-width=".2" stroke="#000"/><circle cx="23.5" cy="21.75" r=".5" stroke-width=".2" stroke="#000"/><path d="M39.5 18.5h-.85l-1-2h-.9v-1h-.65l-1-1h-7.35V9h1V7.5H26.1l-1-1H14.9l-1 1h-2.65V9h1v5.5H4.9l-1 1h-.65v1h-.9l-1 2H.5a.25.25 0 0 0 0 .5h.75v17h37.5V19h.75a.25.25 0 0 0 0-.5zM37.35 17l.75 1.5h-1.35V17zm-1.1 1.5h-.75v-.75l-.5-1-.5 1v.75H33v-.75l-.5-1-.5 1v.75h-2v-.75l-.5-1-.5 1v.75h-1.5v-.75l-.5-1-.5 1v.75h-.75V16h10.5v2.5zm-12.5 13h-7.5v-7.34c0-.34 1.74-1.34 3.75-2.14 2 .8 3.75 1.79 3.75 2.14zm-3.66-10h-.18c-1.25.49-4.16 1.74-4.16 2.64v7.36h-1V20h10.5v11.5h-1v-7.34c0-.9-2.91-2.16-4.16-2.64zM14.25 19v3.5h-.5v-1.75a.25.25 0 0 0-.5 0v1.75h-2.5v-1.75a.25.25 0 0 0-.5 0v1.75h-2.5v-1.75a.25.25 0 0 0-.5 0v1.75h-2.5v-1.75a.25.25 0 0 0-.5 0v1.75h-.5V19zm-10.5 4h10.5v8.5H3.75zm21.5-7.5v1h-10.5v-1h-.65l-.5-.5h12.8l-.5.5zm-10.5 3V17h10.5v2.5h-10.5zm11 4.5h10.5v8.5h-10.5zm10.5-.5h-.5v-1.75a.25.25 0 0 0-.5 0v1.75h-2.5v-1.75a.25.25 0 0 0-.5 0v1.75h-2.5v-1.75a.25.25 0 0 0-.5 0v1.75h-2.5v-1.75a.25.25 0 0 0-.5 0v1.75h-.5V19h10.5zM34.9 15l.5.5h-8.8l.5-.5h7.8zM15.1 7h9.8l.5.5H14.6zm-3.35 1.5V8h16.5v.5h-16.5zm1 .5h14.5v5.5h-14.5zM5.1 15h7.8l.5.5H4.6zm-1.35 1h10.5v2.5h-.75v-.75l-.5-1-.5 1v.75H11v-.75l-.5-1-.5 1v.75H8v-.75l-.5-1-.5 1v.75H5.5v-.75l-.5-1-.5 1v.75h-.75V16zm-1.1 1h.6v1.5H1.9zm-.9 18.5V19h1.5v16.5zm2 0V32h10.5v3.5zm11 0V32h10.5v3.5zm11 0V32h10.5v3.5zm12.5 0h-1.5V19h1.5z" stroke-width=".2" stroke="#000"/></svg>