<svg xmlns="http://www.w3.org/2000/svg" viewBox="0 0 512 512"><path d="M47.728 485.966c5.207 0 8.678-3.471 8.678-8.678v-26.034c0-5.207-3.471-8.678-8.678-8.678-5.207 0-8.678 3.471-8.678 8.678v26.034c.001 5.207 3.471 8.678 8.678 8.678zM82.44 485.966c5.207 0 8.678-3.471 8.678-8.678v-26.034c0-5.207-3.472-8.678-8.678-8.678-5.207 0-8.678 3.471-8.678 8.678v26.034c0 5.207 3.471 8.678 8.678 8.678zM203.931 485.967c5.207 0 8.678-3.471 8.678-8.678v-95.458c0-5.207-3.471-8.678-8.678-8.678-5.207 0-8.678 3.471-8.678 8.678v95.458c.001 5.207 3.472 8.678 8.678 8.678zM238.643 485.967c5.207 0 8.678-3.471 8.678-8.678v-95.458c0-5.207-3.471-8.678-8.678-8.678-5.207 0-8.678 3.471-8.678 8.678v95.458c0 5.207 3.471 8.678 8.678 8.678zM273.355 485.967c5.207 0 8.678-3.471 8.678-8.678v-95.458c0-5.207-3.471-8.678-8.678-8.678-5.207 0-8.678 3.471-8.678 8.678v95.458c0 5.207 3.471 8.678 8.678 8.678zM308.067 485.967c5.207 0 8.678-3.471 8.678-8.678v-95.458c0-5.207-3.471-8.678-8.678-8.678-5.207 0-8.678 3.471-8.678 8.678v95.458c0 5.207 3.472 8.678 8.678 8.678z"/><path d="M498.983 338.441H386.168v-78.102h8.678c5.207 0 8.678-3.471 8.678-8.678 0-5.207-3.471-8.678-8.678-8.678h-43.39v-78.102h8.678c5.207 0 8.678-3.471 8.678-8.678 0-5.207-3.471-8.678-8.678-8.678h-9.07c-3.564-40.006-31.533-72.71-69.032-83.221V34.712c0-5.207-3.471-8.678-8.678-8.678h-8.678V8.678C264.678 3.471 261.207 0 255.999 0c-5.207 0-8.678 3.471-8.678 8.678v17.356h-8.678c-5.207 0-8.678 3.471-8.678 8.678v29.592c-37.498 10.511-65.468 43.215-69.032 83.221h-9.07c-5.207 0-8.678 3.471-8.678 8.678 0 5.207 3.471 8.678 8.678 8.678h8.678v78.102h-43.39c-5.207 0-8.678 3.471-8.678 8.678 0 5.207 3.471 8.678 8.678 8.678h8.678v78.102H13.017c-5.207 0-8.678 3.471-8.678 8.678v156.203c0 5.207 3.471 8.678 8.678 8.678h485.967c5.207 0 8.678-3.471 8.678-8.678V347.119c-.002-5.207-3.473-8.678-8.679-8.678zM108.474 494.644h-86.78V355.797h86.78v138.847zm52.067 0h-34.712V355.797h34.712v138.847zm0-156.203h-17.356v-78.102h17.356v78.102zM247.322 43.39h17.356v17.356h-17.356V43.39zm8.677 34.712c40.453 0 73.35 30.177 77.62 69.424h-155.24c4.271-39.248 37.167-69.424 77.62-69.424zm-78.102 182.237h17.356v78.102h-17.356v-78.102zM334.1 494.644H177.897V355.797H334.1v138.847zM212.609 338.441v-78.102h17.356v78.102h-17.356zm34.713 0v-78.102h17.356v78.102h-17.356zm34.711 0v-78.102h17.356v78.102h-17.356zm52.068 0h-17.356v-78.102h17.356v78.102zm0-95.458H177.897v-78.102h156.204v78.102zm17.356 17.356h17.356v78.102h-17.356v-78.102zm34.713 234.305h-34.712V355.797h34.712v138.847zm104.134 0h-86.78V355.797h86.78v138.847z"/><path d="M429.559 485.966c5.207 0 8.678-3.471 8.678-8.678v-26.034c0-5.207-3.471-8.678-8.678-8.678-5.207 0-8.678 3.471-8.678 8.678v26.034c0 5.207 3.472 8.678 8.678 8.678zM464.27 485.966c5.207 0 8.678-3.471 8.678-8.678v-26.034c0-5.207-3.471-8.678-8.678-8.678-5.207 0-8.678 3.471-8.678 8.678v26.034c0 5.207 3.472 8.678 8.678 8.678zM134.507 477.288c0 5.207 3.472 8.678 8.678 8.678 5.207 0 8.678-3.471 8.678-8.678v-26.034c0-5.207-3.471-8.678-8.678-8.678-5.207 0-8.678 3.471-8.678 8.678v26.034zM368.814 442.576c-5.207 0-8.678 3.471-8.678 8.678v26.034c0 5.207 3.471 8.678 8.678 8.678 5.207 0 8.678-3.471 8.678-8.678v-26.034c-.001-5.207-3.472-8.678-8.678-8.678zM255.999 227.363c5.207 0 8.678-4.339 8.678-8.678v-26.034c0-5.207-3.471-8.678-8.678-8.678-5.207 0-8.678 3.471-8.678 8.678v26.034c.001 5.207 3.472 8.678 8.678 8.678zM290.712 227.363c5.207 0 8.678-4.339 8.678-8.678v-26.034c0-5.207-3.471-8.678-8.678-8.678-5.207 0-8.678 3.471-8.678 8.678v26.034c-.001 5.207 3.47 8.678 8.678 8.678zM221.288 227.363c5.207 0 8.678-4.339 8.678-8.678v-26.034c0-5.207-3.471-8.678-8.678-8.678-5.207 0-8.678 3.471-8.678 8.678v26.034c-.001 5.207 3.47 8.678 8.678 8.678z"/></svg>